HIERARCHY
ROOT root
{
	OFFSET	0	13.1	24.9
	CHANNELS 6  Xposition Yposition Zposition Xrotation Yrotation Zrotation
	JOINT spine_1
	{
		OFFSET	0	9.99999	0
		CHANNELS 3  Xrotation Yrotation Zrotation
		JOINT spine_2
		{
			OFFSET	0	112	-10
			CHANNELS 3  Xrotation Yrotation Zrotation
			JOINT spine_3
			{
				OFFSET	0	206.5	19.3
				CHANNELS 3  Xrotation Yrotation Zrotation
				JOINT spine_4
				{
					OFFSET	0	110.4	14.6
					CHANNELS 3  Xrotation Yrotation Zrotation
					JOINT neck_1
					{
						OFFSET	0	71.8	-50.3
						CHANNELS 3  Xrotation Yrotation Zrotation
						JOINT neck_2
						{
							OFFSET	0	86.2	-25.8
							CHANNELS 3  Xrotation Yrotation Zrotation
							JOINT head_ee
							{
								OFFSET	0	179.8	-8.7
								CHANNELS 3  Xrotation Yrotation Zrotation
								End Site
								{
									OFFSET	1	0	0
								}
							}
						}
					}
					JOINT left_clavicle
					{
						OFFSET	-43.2	22.4	-70.8
						CHANNELS 3  Xrotation Yrotation Zrotation
						JOINT left_shoulder
						{
							OFFSET	-93.9	-5.79999	48.7
							CHANNELS 3  Xrotation Yrotation Zrotation
							JOINT left_elbow
							{
								OFFSET	-291.4	-30.8	15.2
								CHANNELS 3  Xrotation Yrotation Zrotation
								JOINT left_lowarm_twist
								{
									OFFSET	-110.7	-3.89999	13.6
									CHANNELS 3  Xrotation Yrotation Zrotation
									JOINT left_hand
									{
										OFFSET	-110.7	-3.89999	13.6
										CHANNELS 3  Xrotation Yrotation Zrotation
										JOINT left_ee
										{
											OFFSET	-80.8	-5.10001	12.1
											CHANNELS 3  Xrotation Yrotation Zrotation
											End Site
											{
												OFFSET	1	0	0
											}
										}
									}
								}
							}
						}
					}
					JOINT right_clavicle
					{
						OFFSET	43.2	22.4	-70.8
						CHANNELS 3  Xrotation Yrotation Zrotation
						JOINT right_shoulder
						{
							OFFSET	93.9	-5.79999	48.7
							CHANNELS 3  Xrotation Yrotation Zrotation
							JOINT right_elbow
							{
								OFFSET	291.4	-30.8	15.2
								CHANNELS 3  Xrotation Yrotation Zrotation
								JOINT right_lowarm_twist
								{
									OFFSET	110.7	-3.89999	13.6
									CHANNELS 3  Xrotation Yrotation Zrotation
									JOINT right_hand
									{
										OFFSET	110.7	-3.89999	13.6
										CHANNELS 3  Xrotation Yrotation Zrotation
										JOINT right_ee
										{
											OFFSET	80.8	-5.10001	12.1
											CHANNELS 3  Xrotation Yrotation Zrotation
											End Site
											{
												OFFSET	1	0	0
											}
										}
									}
								}
							}
						}
					}
				}
			}
		}
	}
	JOINT left_hip
	{
		OFFSET	-82.8	-127.5	0.300001
		CHANNELS 3  Xrotation Yrotation Zrotation
		JOINT left_knee
		{
			OFFSET	-28.2	-396.7	2.2
			CHANNELS 3  Xrotation Yrotation Zrotation
			JOINT left_ankle
			{
				OFFSET	-11.7	-411.3	35.4
				CHANNELS 3  Xrotation Yrotation Zrotation
				JOINT left_toes
				{
					OFFSET	0	-60	-88.6
					CHANNELS 3  Xrotation Yrotation Zrotation
					JOINT left_foot_ee
					{
						OFFSET	-22.5	-16.5	-42.2
						CHANNELS 3  Xrotation Yrotation Zrotation
						End Site
						{
							OFFSET	1	0	0
						}
					}
				}
			}
		}
	}
	JOINT right_hip
	{
		OFFSET	82.8	-127.5	0.300001
		CHANNELS 3  Xrotation Yrotation Zrotation
		JOINT right_knee
		{
			OFFSET	28.2	-396.7	2.2
			CHANNELS 3  Xrotation Yrotation Zrotation
			JOINT right_ankle
			{
				OFFSET	11.7	-411.3	35.4
				CHANNELS 3  Xrotation Yrotation Zrotation
				JOINT right_toes
				{
					OFFSET	0	-60	-88.6
					CHANNELS 3  Xrotation Yrotation Zrotation
					JOINT right_foot_ee
					{
						OFFSET	22.5	-16.5	-42.2
						CHANNELS 3  Xrotation Yrotation Zrotation
						End Site
						{
							OFFSET	1	0	0
						}
					}
				}
			}
		}
	}
}
MOTION
Frames: 9
Frame Time: 0.02
544.513 603.292 -446.331 22.6747 -77.5036 32.1098 -8.07179 -0.519203 -5.34878 -8.0559 -0.178295 -5.3709 -8.0006 1.6855 -5.10341 -8.0359 0.859562 -5.30485 5.58139 -0.27696 3.48571 5.64349 -3.5403 4.00329 -0.0 0.0 -0.0 9.98384 8.58444 18.9774 9.69639 -18.5345 76.2134 1.53656 -37.2746 0.51825 17.8304 0.279967 -2.25129 -2.65707 18.6968 -8.43838 -0.0 0.0 -0.0 8.09429 -1.67534 -15.7388 5.25898 37.7253 -46.5216 2.00941 44.8628 -0.829578 10.7098 -0.25248 1.3428 -3.92953 -23.8819 13.0733 0.0 0.0 0.0 39.282 -15.1149 -16.5813 -89.1296 -6.01297 10.8207 -12.3751 21.7063 1.8989 32.0567 -0.0 -0.0 -0.0 0.0 -0.0 10.2786 9.21271 -16.4659 -55.1829 1.70289 -7.97377 -22.6585 -22.9472 -3.51687 9.36446 -0.0 -0.0 0.0 0.0 0.0 
550.187 587.248 -434.161 21.7772 -76.5408 30.1627 -8.38752 -0.590297 -4.90179 -8.3742 -0.277574 -4.92933 -8.31589 1.46503 -4.71526 -8.34621 0.702904 -4.88695 5.66174 0.633631 3.79587 5.71627 -2.26468 4.40415 -0.0 0.0 -0.0 9.91004 8.32718 18.8627 9.34432 -18.1272 73.6143 1.41136 -34.9572 0.444441 13.6717 0.277631 -1.72025 -2.32999 16.6127 -7.51325 -0.0 0.0 -0.0 9.09621 -1.47643 -17.7453 10.2755 38.6308 -48.2046 1.97638 44.3883 -0.806379 11.4336 -0.260427 1.43491 -4.05129 -23.6725 13.9257 0.0 0.0 0.0 42.1425 -14.3043 -16.9509 -89.3813 -6.05025 10.8317 -4.84416 16.1424 0.722519 35.3804 -0.0 -0.0 -0.0 0.0 -0.0 13.5392 10.6312 -18.5137 -61.011 2.31014 -8.63588 -23.4737 -22.9419 -3.64364 9.07621 -0.0 -0.0 0.0 0.0 0.0 
562.545 575.266 -433.279 26.788 -76.0374 34.4394 -8.81158 -0.409224 -4.67347 -8.79944 -0.111343 -4.69 -8.75929 1.57147 -4.42084 -8.78554 0.854346 -4.61304 4.60319 1.16241 3.532 4.64175 -1.07617 4.08025 -0.0 0.0 -0.0 10.0812 9.54212 19.0607 7.67673 -21.1301 71.9084 1.27591 -32.2935 0.369416 13.1359 0.274528 -1.65188 -1.31909 19.639 0.053661 -0.0 0.0 -0.0 9.5019 -2.15242 -18.5291 13.1606 37.6531 -48.7651 2.15498 46.8643 -0.934066 11.7087 -0.263142 1.46994 -4.02665 -24.6835 13.1369 0.0 0.0 0.0 44.2391 -15.1366 -14.7211 -87.4989 -5.7727 10.7458 -5.07186 12.977 0.752424 39.6735 -0.0 -0.0 -0.0 0.0 -0.0 10.9211 13.3558 -19.8858 -61.2305 2.33432 -8.6596 -18.1092 -28.627 -2.89316 9.36643 -0.0 -0.0 0.0 0.0 0.0 
565.82 561.93 -432.332 28.3542 -76.3327 35.82 -9.10971 -0.604302 -4.50141 -9.0985 -0.316942 -4.53066 -9.04198 1.34323 -4.33893 -9.06767 0.641855 -4.49622 5.83392 1.29315 2.50339 5.85037 -0.00856588 2.94564 -0.0 0.0 -0.0 9.76502 8.87482 18.5339 6.85492 -18.6345 72.1258 1.10802 -28.7606 0.284093 7.65385 0.20612 -0.955241 -1.43026 17.1063 -1.76392 -0.0 0.0 -0.0 9.86842 -1.00953 -19.3333 16.3609 37.5504 -49.0776 2.21256 47.6171 -0.976348 13.5234 -0.276836 1.70132 -3.80282 -22.807 12.9903 0.0 0.0 0.0 48.5436 -12.9392 -13.9741 -85.3859 -5.46461 10.6385 -3.85871 13.0585 0.571217 38.3342 -0.0 -0.0 -0.0 0.0 -0.0 12.5381 14.5384 -20.4995 -65.271 2.79522 -9.07946 -17.9281 -24.7243 -2.80136 9.32929 -0.0 -0.0 0.0 0.0 0.0 
579.218 553.061 -431.334 28.0452 -75.4494 34.7647 -9.34947 -0.523095 -4.33232 -9.33907 -0.246626 -4.35676 -9.29112 1.36393 -4.14548 -9.31443 0.692759 -4.30849 4.76373 2.57069 1.37201 4.77573 3.21995 1.69803 -0.0 0.0 -0.0 10.281 10.8383 19.2848 5.00372 -21.0448 70.3162 0.962035 -25.4803 0.217517 6.14914 0.175713 -0.765439 -0.911244 16.6948 1.21831 -0.0 0.0 -0.0 10.466 -0.537569 -20.5898 19.1077 35.3875 -49.371 2.20833 47.5624 -0.973221 14.7845 -0.282033 1.8623 -3.64333 -22.1914 12.4133 0.0 0.0 0.0 51.3072 -11.9069 -11.5073 -84.3589 -5.31631 10.5823 -7.21611 13.9218 1.07594 38.5672 -0.0 -0.0 -0.0 0.0 -0.0 11.2683 16.2973 -21.0259 -66.5478 2.94693 -9.20533 -9.62063 -24.5067 -1.49003 9.25641 -0.0 -0.0 0.0 0.0 0.0 
594.227 546.246 -427.366 29.8448 -75.5234 36.6138 -9.52741 -0.334118 -4.12728 -9.51794 -0.0710412 -4.14015 -9.48741 1.46157 -3.87466 -9.5074 0.831834 -4.05649 3.76734 2.35025 2.03192 3.77931 2.31938 2.43399 -0.0 0.0 -0.0 10.1871 11.8714 18.9834 3.47895 -22.7154 69.5949 0.771336 -20.9116 0.142346 2.03669 0.0672948 -0.251414 -0.149397 17.9233 6.36805 -0.0 0.0 -0.0 10.7602 1.84357 -21.3355 21.5862 32.8935 -50.2481 2.30243 48.75 -1.04333 16.0095 -0.283689 2.01875 -3.52165 -22.2894 11.629 0.0 0.0 0.0 51.7319 -12.7263 -10.5659 -81.5373 -4.91424 10.4142 -4.68283 12.2451 0.693591 40.1145 -0.0 -0.0 -0.0 0.0 -0.0 9.5685 15.5011 -21.2355 -67.2216 3.02813 -9.2704 -5.3923 -24.4135 -0.82951 6.10206 -0.0 -0.0 0.0 0.0 0.0 
605.039 541.429 -427.784 32.0567 -75.2272 38.8002 -9.82659 -0.591155 -4.00509 -9.81773 -0.335315 -4.03453 -9.76729 1.19525 -3.86823 -9.78771 0.569857 -4.00817 1.27918 3.08834 1.95584 1.29588 3.82169 2.41478 -0.0 0.0 -0.0 10.2936 12.2921 19.1239 2.03891 -22.9289 69.0311 0.59029 -16.2997 0.0845355 2.10782 0.0694833 -0.260236 0.511203 19.3004 10.91 -0.0 0.0 -0.0 10.7957 3.23671 -21.4723 24.3279 31.3846 -51.7329 2.42306 50.1941 -1.13502 15.8328 -0.283656 1.99618 -2.93863 -21.0559 8.86233 0.0 0.0 0.0 52.5286 -13.5566 -8.50091 -78.589 -4.50339 10.2176 -4.9359 13.7864 0.732943 35.218 -0.0 -0.0 -0.0 0.0 -0.0 7.59716 16.8118 -21.552 -68.1683 3.14349 -9.3602 4.36378 -25.0993 0.659801 4.537 -0.0 -0.0 0.0 0.0 0.0 
621.544 530.206 -430.739 34.4818 -76.0723 41.4952 -9.99379 -0.751193 -3.74732 -9.98612 -0.511394 -3.78745 -9.92698 0.949442 -3.70213 -9.94593 0.353291 -3.80543 2.77765 4.16609 0.742421 2.81762 6.64212 1.12983 -0.0 0.0 -0.0 10.4001 12.7408 19.2579 -0.577473 -22.9901 68.1481 0.38236 -10.7255 0.035893 -1.55482 -0.0573715 0.190257 1.81116 19.8784 19.1855 -0.0 0.0 -0.0 10.7763 6.26821 -21.5185 27.8915 29.7329 -53.7243 2.46246 50.6477 -1.16539 17.0652 -0.282432 2.15359 -2.93544 -23.0548 7.7444 0.0 0.0 0.0 54.616 -16.5373 -5.40493 -72.8561 -3.73582 9.77635 -6.83057 18.411 1.02844 30.6423 -0.0 -0.0 -0.0 0.0 -0.0 4.97401 19.0571 -22.1808 -67.3973 3.04943 -9.28721 18.3298 -21.7792 2.60441 -0.43203 0.0 0.0 0.0 0.0 0.0 
629.591 525.618 -433.343 35.3738 -76.4764 41.8019 -10.1668 -0.870763 -3.44123 -10.1605 -0.650161 -3.48958 -10.098 0.718857 -3.47609 -10.1148 0.161212 -3.5459 1.65944 5.41147 1.20939 1.71839 8.51691 1.789 -0.0 0.0 -0.0 10.2543 14.7808 18.7088 -1.88197 -22.6954 68.3118 0.337344 -9.48724 0.0279934 -2.97447 -0.114254 0.362577 2.58596 20.1659 24.2962 -0.0 0.0 -0.0 11.1525 8.87292 -22.3754 30.9542 28.0269 -53.1434 2.32092 48.9769 -1.05726 17.8526 -0.279877 2.25412 -1.98076 -21.352 3.05353 0.0 0.0 0.0 56.8425 -21.3473 -1.4174 -67.4224 -3.05247 9.2896 -3.64268 22.6173 0.553968 19.4241 -0.0 -0.0 -0.0 0.0 -0.0 3.711 18.6744 -21.0976 -67.5103 3.06315 -9.29799 21.2595 -21.6136 2.98158 -5.40406 0.0 0.0 0.0 0.0 0.0 
